<?xml version="1.0" encoding="utf-8"?>
<!-- Generator: Adobe Illustrator 24.1.2, SVG Export Plug-In . SVG Version: 6.00 Build 0)  -->
<svg version="1.1" id="Capa_1" xmlns="http://www.w3.org/2000/svg" xmlns:xlink="http://www.w3.org/1999/xlink" x="0px" y="0px"
	 viewBox="0 0 1092.3 756.8" style="enable-background:new 0 0 1092.3 756.8;" xml:space="preserve">
<style type="text/css">
	.st0{fill:#2D2D2D;}
	.st1{fill:#FF9100;}
	.st2{fill:#252233;}
</style>
<polygon class="st0" points="521.2,712.6 512.3,694.6 503.4,712.6 483.5,715.5 497.9,729.5 494.5,749.4 512.3,740 530.1,749.4 
	526.7,729.5 541.1,715.5 "/>
<path class="st0" d="M461.5,721.6c-29.2-4.9-57.6-14.1-84.2-27.4c-1.3-0.7-2.9-0.1-3.6,1.2c-0.7,1.3-0.1,2.9,1.2,3.6
	c27.1,13.5,55.9,22.9,85.7,27.9c0.1,0,0.3,0,0.4,0c1.3,0,2.4-0.9,2.7-2.2C464,723.3,463,721.9,461.5,721.6z"/>
<path class="st0" d="M647,693.7c-26.9,13.6-55.6,23-85.2,27.9c-1.5,0.2-2.5,1.6-2.2,3.1c0.2,1.3,1.4,2.2,2.6,2.2c0.2,0,0.3,0,0.5,0
	c30.2-5.1,59.4-14.6,86.8-28.4c1.3-0.7,1.9-2.3,1.2-3.6C650,693.6,648.4,693,647,693.7z"/>
<path class="st1" d="M515,160.1c-1.6,0-3.3,1.8-3.3,3.4c0,1.6,2,2.7,3.6,2.6c1.6,0,2.7-1.6,2.6-3.2C518,161.3,516.7,160.1,515,160.1
	z"/>
<path class="st1" d="M590.2,199.5c-7.2,0.6-12.3,12.2-12.4,12.3l-1.3,2.9l-1.7-2.7c-1.6-2.4-6.8-8.5-12.1-8.1
	c-3.6,0.3-7,3.7-10,10.1c-2.8,5.9-3.1,10.4-1.1,13.3c3.8,5.5,15.2,4.7,16.9,4.6l0,0l3.2-0.4l-1.4,2.9c-0.1,0.1-4.6,9.2-1.1,14.4
	c2.1,3.1,6.7,4.3,13.8,3.7l0.3,1.7l-0.1-1.7c6.5-0.6,10.5-2.5,12-5.8c2.9-6.6-4.5-16.7-4.5-16.8l-1.5-2.5l3.1-0.3
	c1-0.1,10.3-1,12.7-6.4c1.6-3.3,0.3-7.9-3.7-13.7C597.6,201.7,593.9,199.1,590.2,199.5z"/>
<path class="st1" d="M523,155.6c0.9-1.3,0.6-3.1-0.7-4c-1.3-0.9-3.7-0.5-4.6,0.9c-0.9,1.3,0,3.3,1.4,4.2
	C520.3,157.5,522.1,156.9,523,155.6z"/>
<path class="st1" d="M627.2,43.6V9.3C517.1,10.7,421.4,71.9,371,162l31,15.2C446.8,98.5,530.8,45,627.2,43.6z"/>
<path class="st1" d="M530.3,182.6c0-2.3-1.9-4.1-4.2-4c-2.3,0-4.7,2.5-4.6,4.8c0,2.3,2.8,3.8,5.1,3.7
	C528.8,187,530.3,184.8,530.3,182.6z"/>
<path class="st1" d="M548.3,182.2c-1.2,0.1-2.3,1.5-2.2,2.7c0.1,1.2,1.6,1.9,2.8,1.7c1.2-0.1,1.9-1.3,1.8-2.5
	C550.6,183,549.5,182.1,548.3,182.2z"/>
<path class="st1" d="M627.2,48.8c-94.4,1.4-176.6,53.7-220.6,130.6l220.6,127.4V48.8z M487.6,165.5c-0.5,5.6-6.3,6-9,4.9
	c-2.7-1.1-8.4-5-8.4-5s0.8,16.6,1.1,21.4c0.3,4.8-1.9,5.2-3.6,5.4c-1.7,0.3-5.2-0.3-7.9-0.4c-2.7-0.1-4-3.4-3.6-5.9
	c0.4-2.5,3-20.6,3-20.6s-4,2.3-7.6,4c-4.5,2.2-9.8-1.5-9.9-7.2c-0.1-5.7,6-15.4,12.1-17.9c6-2.5,18.8-2.8,25.7,2.1
	C485.6,150.6,488.1,159.8,487.6,165.5z M518.8,199.9c-15.7-6.2-23.4-23.9-17.2-39.6c6.2-15.7,23.9-23.4,39.6-17.2
	c15.7,6.2,23.4,23.9,17.2,39.6C552.2,198.4,534.5,206.1,518.8,199.9z M608.1,222.3c-2.5,5.4-9.1,7.3-13.1,8
	c2.3,3.9,6.1,11.7,3.3,17.9c-2,4.5-7,7.2-14.9,7.8l-0.1,0c-8.4,0.7-14.1-1.1-17-5.3c-3.3-4.9-1.6-11.6-0.3-15.2
	c-4.6,0.1-13.3-0.6-17.3-6.2c-2.8-4-2.6-9.7,0.8-16.8c3.6-7.6,7.9-11.6,12.9-12.1c5.9-0.5,11,4.3,13.5,7.3c2.2-4,7.2-11.2,14-11.8
	c4.9-0.4,9.7,2.6,14.2,9.1C608.9,211.9,610.3,217.7,608.1,222.3z M584.5,153.1c0-4.8,3.9-8.8,8.7-8.8c4.8,0,8.8,3.9,8.8,8.8
	c0,4.8-3.9,8.7-8.8,8.7C588.4,161.8,584.5,157.9,584.5,153.1z M584.2,101.4c1.1,4.5,1.7,13-8.3,18c-2.3-5.5-1.7-9.9-0.2-13.2
	c-1.3,0.2-2.8,0.2-4.5-0.2c0.7-2.3,1.7-3.9,2.9-5c-13.6,1-20.3-11.6-20.3-11.6s17.4-8.8,27.7,7c-3.1-12.2,8.3-18,8.3-18
	s5.4,11.5-3.9,18.8c6-1.8,18.1-3.2,25.5,10.7C597,114.4,587.9,106.1,584.2,101.4z"/>
<path class="st1" d="M530.3,189.6c-1.4,0.3-2.6,2.2-2.3,3.6c0.3,1.4,2.2,2,3.6,1.7c1.4-0.3,2.1-1.8,1.8-3.3
	C533.1,190.2,531.7,189.3,530.3,189.6z"/>
<path class="st1" d="M597.8,153.1c0-2.5-2-4.5-4.5-4.5c-2.5,0-4.6,2.1-4.6,4.5c0,2.5,2,4.6,4.6,4.6
	C595.7,157.6,597.8,155.6,597.8,153.1z"/>
<path class="st1" d="M536.3,174.5c0.6-1.5-0.3-3.1-1.8-3.7c-1.5-0.7-3.2,0-3.8,1.5c-0.6,1.5,0.2,3.7,1.7,4.4
	C533.9,177.3,535.7,175.9,536.3,174.5z"/>
<path class="st1" d="M546.4,161.4c-1.2,1.1-0.7,3.2,0.4,4.4c1.1,1.2,2.9,1,4.1-0.1c1.2-1.1,1.3-2.9,0.2-4.1
	C550,160.4,547.5,160.3,546.4,161.4z"/>
<path class="st1" d="M547.7,176.5c0.9-2.1-0.4-5.3-2.5-6.1c-2.1-0.9-4.6,1.1-5.4,3.2c-0.9,2.1,0.5,4.3,2.6,5.2
	C544.5,179.6,546.9,178.6,547.7,176.5z"/>
<path class="st1" d="M537.2,181.6c-1.6,0-3.3,1.8-3.2,3.4c0,1.6,2,2.7,3.6,2.6c1.6-0.1,2.7-1.6,2.6-3.2
	C540.2,182.9,538.8,181.6,537.2,181.6z"/>
<path class="st1" d="M470.2,150.4c-1.2,0.1-2.5,0.4-2.6,1.1c-0.1,0.7,1.6,1.3,2.2,1.4c1,0.1,2.6-0.2,2.6-0.8
	C472.5,151.5,471.4,150.4,470.2,150.4z"/>
<path class="st1" d="M475.2,147c-1.5,0.1-3.2,0.5-3.4,1.5c-0.1,0.9,2,1.8,2.9,1.9c1.2,0.1,3.3-0.2,3.4-1
	C478.1,148.4,476.8,146.9,475.2,147z"/>
<path class="st1" d="M538.4,165.3c1.6-0.1,2.6-1.6,2.6-3.2c-0.1-1.6-1.4-2.9-3-2.8c-1.6,0.1-3.3,1.8-3.2,3.4
	C534.8,164.4,536.7,165.4,538.4,165.3z"/>
<path class="st1" d="M541.9,154.9c1.1-0.5,1.3-1.9,0.7-3c-0.5-1.1-1.8-1.5-2.9-1c-1.1,0.5-1.6,2.3-1.1,3.3
	C539.1,155.4,540.8,155.4,541.9,154.9z"/>
<path class="st1" d="M470.4,146.8c0-1.5-3.6-2.4-5-2.3c-2,0.1-5.4,1-5.2,2.4c0.1,1.4,2.6,3.5,5.1,3
	C467.8,149.5,470.4,148.3,470.4,146.8z"/>
<path class="st1" d="M514.3,182.1c-1.6,0-3.3,1.8-3.3,3.4c0,1.6,2,2.7,3.6,2.6c1.6,0,2.7-1.5,2.6-3.2
	C517.2,183.3,515.9,182.1,514.3,182.1z"/>
<path class="st1" d="M455.8,145.4c-0.9,0.3-2.2,1.3-2,1.9c0.3,0.6,1.7,1.1,2.8,0.5c1-0.6,2-1.5,1.8-2.2
	C458.2,144.9,456.5,145.1,455.8,145.4z"/>
<path class="st1" d="M508.8,164.5c-0.5-1.1-1.8-1.5-2.9-0.9c-1.1,0.5-1.6,2.3-1.1,3.3c0.5,1.1,2.2,1.1,3.2,0.6
	C509.2,166.9,509.4,165.5,508.8,164.5z"/>
<path class="st1" d="M516.3,173.7c0-2.3-1.9-4.1-4.2-4c-2.3,0-4.7,2.5-4.6,4.8c0,2.3,2.8,3.8,5.1,3.7
	C514.9,178.1,516.4,176,516.3,173.7z"/>
<path class="st1" d="M513.7,156.9c1.1-0.5,1.3-1.9,0.7-3c-0.5-1.1-1.8-1.5-2.9-1c-1.1,0.5-1.6,2.3-1.1,3.3
	C511,157.3,512.6,157.4,513.7,156.9z"/>
<path class="st1" d="M522,164.6c0,2.3,2.8,3.8,5.1,3.7c2.3,0,3.8-2.2,3.7-4.5c0-2.3-1.9-4.1-4.2-4C524.3,159.9,522,162.3,522,164.6z
	"/>
<path class="st1" d="M531.3,155c1.6,0,2.9-1.2,3-2.9c0-1.6-1.7-3.3-3.3-3.4c-1.6,0-2.7,1.9-2.7,3.5C528.2,153.9,529.7,155,531.3,155
	z"/>
<path class="st1" d="M523.1,170.5c-1.1,0.5-1.6,2.3-1.1,3.3c0.5,1.1,2.2,1.1,3.3,0.6c1.1-0.5,1.3-1.9,0.7-3
	C525.5,170.4,524.1,170,523.1,170.5z"/>
<path class="st1" d="M487.4,342.4c9.3-10.1,14-20.2,14-30.2c0-4.8-1.4-8.5-4.2-11.1c-2.8-2.6-6.6-4-11.3-4
	c-10.8,0-20.6,4.8-29.5,14.4c-8.9,9.6-13.3,19.7-13.3,30.2c0,10.6,5.1,15.8,15.2,15.8C468.3,357.6,478,352.6,487.4,342.4z"/>
<path class="st1" d="M26.9,602.5l6.3,0.5l13-2.4c4.2,0,8.2-2,11.9-6.1c0.2-0.2,2.1-3.3,5.7-9.3c3.6-6,8.7-14.2,15.3-24.7
	c6.6-10.5,14.7-23.4,24.2-38.8c9.5-15.4,27.6-44.2,54.4-86.3c10.9,15.8,26.3,23.8,46,23.8c19.7,0,42.1-4.7,67.1-14.3
	c25-9.5,47.8-21.7,68.3-36.6c20.5-14.9,37.6-32.4,51.2-52.4c13.6-20.1,20.5-39.8,20.5-59.3c0-19.5-13.1-36.8-39.4-52
	c-26.3-15.2-58.9-22.8-97.9-22.8s-74.1,3.5-105.4,10.6c-31.3,7-57.5,16-78.6,26.8c-21.1,10.8-37.9,22.6-50.4,35.4
	c-12.5,12.8-18.8,24.8-18.8,36.2c0,11.4,2.8,20.6,8.5,27.6C34.4,365.5,43.5,369,56,369c12.5,0,27.8-6.4,46-19.3
	c0.7-0.7,1.1-2.9,1.1-6.5c0-3.6-0.4-5.4-1.3-5.4h-0.3c-5.3,1.9-9.6,2.9-12.9,2.9c-7.8,0-11.6-2.6-11.6-7.8c0-5.2,2.9-9.9,8.7-14.1
	c16.6-12.7,42.9-25.7,79.1-39c36.2-13.3,67.1-19.9,92.7-19.9c25.6,0,47.4,3.8,65.4,11.3c9.1,3.9,16.4,9.2,21.6,15.8
	c5.3,6.7,7.9,14.3,7.9,22.7c0,8.5-4.8,18.6-14.4,30.5c-9.6,11.9-21.5,23.3-35.8,34.2c-14.3,10.9-30.8,20.3-49.7,28.1
	c-18.8,7.8-36.4,11.7-52.6,11.7h-7.7c-3.7,0-7.2-0.4-10.4-1.1c-3.3-0.7-5.6-2.5-7-5.3c40.5-63.9,68.5-106.7,84-128.4
	c0.9-1.4,1.3-3.9,1.3-7.5c0-3.6-1.1-5.4-3.4-5.4h-13.2c-8.8,0-15.2,0.5-19.1,1.5c-4,1-8.5,4.2-13.6,9.6c-5.1,5.5-23,30.2-53.8,74.2
	c-30.7,44-63.5,93.1-98.1,147.1c-34.7,54.1-52,85.2-52,93.5c0,6.5,5.2,9.8,15.6,9.8L26.9,602.5L26.9,602.5z"/>
<path class="st0" d="M822.8,433.5c-63.2,49.4-106.6,89.5-129.6,119.4c5-1,10.8-2.2,17.5-3.4c25.3-28.5,65-63.9,119.2-106.2
	c8.3-2.3,14-5,17.2-8.2c3.2-3.2,4.7-7.8,4.7-13.7c0-5-1.1-9.2-3.2-12.7c-0.7,6.1-2.9,11.2-6.7,15
	C837.9,427.7,831.7,430.9,822.8,433.5z"/>
<path class="st0" d="M879.5,541c9.6-16.7,20.1-31.1,31.6-43.1c18.1-18.8,35.9-32.2,53.4-40.4c3.8-5.2,7.9-10.8,12.4-16.9
	c-22.8,5.1-46.6,20.5-71,45.9c-10.9,11.4-21.2,25.4-30.4,41.5c-12,21-13.4,28.3-13.4,30.4c0,0,0,0.1,0,0.1c2.2-1.3,6.2-3.9,12.6-8.8
	C876.2,546.9,877.7,544.2,879.5,541z"/>
<path class="st2" d="M469,374.6c10.1,0,19.9-5.1,29.2-15.2c9.3-10.1,14-20.2,14-30.2c0-4.4-1.3-7.8-3.7-10.4
	c-1.6,9.8-6.6,19.6-15.4,29c-10.8,11.8-22.6,17.7-35,17.7c-1.2,0-2.4-0.2-3.5-0.3C456.5,371.4,461.2,374.6,469,374.6z"/>
<path class="st2" d="M38.8,374.1c0.3,0.4,0.5,0.9,0.8,1.3c5.6,7.1,14.7,10.6,27.2,10.6c12.5,0,27.8-6.4,46-19.3
	c0.7-0.7,1.1-2.9,1.1-6.5c0-3.6-0.4-5.4-1.3-5.4h-0.3c-2.5,0.9-4.7,1.6-6.7,2c-19.2,13.4-35.4,20-49.5,20
	C49.5,376.9,43.8,375.8,38.8,374.1z"/>
<path class="st0" d="M268.2,276.8c25.6,0,47.4,3.8,65.4,11.4c0.8,0.3,1.5,0.7,2.3,1.1c-4.2-4.4-9.5-8-16.1-10.8
	c-14.5-6.1-32-9.6-52.1-10.5c0.3,1.3,0.5,2.7,0.5,4.2c0,1.7-0.1,3.2-0.3,4.7C267.9,276.9,268.1,276.8,268.2,276.8z"/>
<path class="st0" d="M471.5,458.6c6.4-1.3,23.8-3,52.1-5c0.4-0.3,0.7-0.6,1.1-0.9c4.5-3.6,8.6-6.9,12.3-9.8
	c-36.9,2.4-60.8,4.4-71.2,5.9c-0.2,1-0.4,2.1-0.4,3c0,4.6,1.8,6.9,5.3,6.9H471.5z"/>
<path class="st0" d="M452.4,412.8c-3.9,9.3-17.1,34.3-62.3,112.3c-0.3,0.7-1.9,3.3-4.6,7.4c-2.3,3.4-4,6.3-5.3,8.5
	c-1.3,2.3-2.8,5.1-4.5,8.4c-3.6,7.2-4.4,11.6-4.4,14c-0.1,0.4,0.9,1.1,4.3,1.1c1,0,2.1-0.2,3.2-0.3c0.3-0.5,0.4-1,0.7-1.6
	c1.8-3.3,3.3-6.2,4.6-8.6c1.3-2.4,3.2-5.4,5.6-9c2.4-3.6,3.8-5.9,4.4-7c26.4-45.5,44.4-77.4,54.2-95.8c-1-2-1.5-4.5-1.5-7.5
	c0-5.5,2.4-11.9,7.3-19.6C453.6,414.4,453,413.6,452.4,412.8z"/>
<path class="st0" d="M1013.2,501.8c-8.8,19.5-14.5,36.3-17,49.9c-0.3,1.3-0.7,2.7-0.7,6c0,3.8,0.5,5.8,0.8,6.6
	c1-0.1,2.3-0.4,3.8-0.9c2.9-13.5,8.4-29.4,16.7-47.8c9.1-20.2,17.3-36.7,24.8-49.7c7.5-12.9,12.4-20.6,14.7-22.9
	c2.3-2.3,3.4-5.9,3.4-10.8c0-4-1.4-7.1-3.9-9.3c-0.9,3.5-2.4,6.5-4.7,8.8c-0.6,0.6-3.5,4-13.4,21.2
	C1030.4,465.4,1022.2,481.9,1013.2,501.8z"/>
<path class="st0" d="M628.6,433.5C565.5,482.9,522,522.9,499,552.9c5-1,10.9-2.2,17.5-3.4c25.3-28.5,65-63.9,119.2-106.2
	c2.3-0.6,4.3-1.3,6.2-2c-0.7-1.8-1.1-4-1.1-6.5c0-2.1,0.3-4.3,1-6.7C638.4,430.1,634,431.9,628.6,433.5z"/>
<path class="st0" d="M665.7,458.6c6.4-1.3,23.8-3,52.1-5c0.4-0.3,0.7-0.6,1.1-0.9c4.5-3.6,8.6-6.9,12.3-9.8
	c-36.9,2.4-60.8,4.4-71.2,5.9c-0.2,1-0.4,2.1-0.4,3c0,4.6,1.8,6.9,5.3,6.9H665.7z"/>
<path class="st0" d="M745.7,601c-82.5,14.4-97.6,16.2-101.6,16.2c-7.4,0-9.7-0.2-10.9-0.3c-1.5-0.2-2.8-0.4-4-0.6
	c-0.5-0.1-0.9-0.3-1.4-0.4c0.4,1.2,0.9,2.2,1.6,2.8c1.9,1.9,3,2.9,3.3,3c0.3,0.2,0.8,0.5,1.5,1.1c0.7,0.5,1.3,0.9,1.9,1.1
	c0.5,0.2,1.3,0.4,2.2,0.8c1,0.4,2,0.6,3,0.8c1.1,0.2,2.3,0.4,3.7,0.5c1.4,0.2,4.7,0.3,9.9,0.3c5.2,0,38.6-5.4,100.2-16.1
	c28.1-4.8,48.3-8.5,61-11.2c-2.3-3-4.3-6.3-6-9.9C797.7,591.9,776.4,595.8,745.7,601z"/>
<path class="st0" d="M907.3,597.1c-20.5,14.3-37.1,21.2-50.9,21.2c-7.6,0-14.4-1.4-20.6-3.9c0.7,0.7,1.3,1.5,2,2.2
	c7.6,7.2,17.3,10.8,29.3,10.8c12,0,27.4-6.6,46.4-19.8c10.1-7,19.5-15,28.4-23.7c-1.2-4.5-2-9.2-2-14c0-0.2,0-0.3,0-0.5
	C929.8,579.7,918.9,589,907.3,597.1z"/>
<path class="st0" d="M1081.4,543.9c-0.4-2.5-1-4.4-2-5.7c0,1.5,0.2,3,0.2,4.6c0,7-0.8,11.5-2.4,14.9c-5.7,11.2-17.4,23.9-35.8,38.8
	c-18.7,15.2-36.3,22.9-52.2,22.9c-7.6,0-14.3-1.3-20.1-3.5c6.7,8.3,17,12.6,30.9,12.6c14.2,0,29.9-7,47.3-21.1
	c17.3-14.1,28.6-26.2,33.7-36.2c1.1-2.1,1.6-5.9,1.6-11.4C1082.5,554.3,1082.2,549,1081.4,543.9z"/>
<path class="st0" d="M450,617.3c-7.4,0-9.7-0.2-10.9-0.3c-1.5-0.2-2.8-0.4-4-0.6c-0.5-0.1-0.9-0.3-1.4-0.4c0.4,1.2,0.9,2.2,1.6,2.8
	c1.9,1.9,3,2.9,3.3,3c0.3,0.2,0.8,0.5,1.5,1.1c0.7,0.5,1.3,0.9,1.9,1.1c0.5,0.2,1.3,0.4,2.2,0.8c1,0.4,2,0.6,3,0.8
	c1.1,0.2,2.3,0.4,3.7,0.5c1.4,0.2,4.7,0.3,9.9,0.3c5.2,0,38.6-5.4,100.3-16.1c20.2-3.5,36.4-6.4,48.6-8.7c-1-2.8-1.5-6.3-1.7-10.7
	c-13,2.6-31.9,6-56.4,10.2C469,615.4,453.9,617.3,450,617.3z"/>
<path class="st0" d="M37.7,619.5l6.3,0.5l12.9-2.4c4.2,0,8.2-2,11.9-6.1c0.2-0.2,2.1-3.3,5.7-9.2c3.6-6,8.7-14.2,15.3-24.7
	c6.6-10.5,14.7-23.4,24.2-38.8c9.3-15,26.7-42.7,52.3-83c-2.8-2-5.4-4.3-7.9-6.8c-23.4,36.9-39.8,62.8-48.5,77
	c-9.5,15.4-17.6,28.4-24.2,38.9c-6.6,10.4-11.7,18.6-15.3,24.6c-5.9,9.8-6,9.9-6.8,10.7c-4.8,5.3-10.5,8.1-16.7,8.4L33.7,611
	l-7.4-0.6l-3.8,0c-1.8,0-3.2-0.2-4.7-0.4c0.2,6.3,5.3,9.5,15.5,9.5L37.7,619.5L37.7,619.5z"/>
<path class="st0" d="M190.2,291.7c5.8-7.9,9.4-12.6,11.7-15.5c-10.9,2.9-22.4,6.6-34.5,11.1c-35.3,13-61.2,25.7-77.1,37.8
	c-4.9,3.6-5.5,6.2-5.6,7.4c0.6,0.2,1.8,0.4,3.8,0.4c1.7,0,4.8-0.4,10.2-2.4l1.3-0.5h1.4c0.8,0,1.7,0.1,2.7,0.4
	c16.6-10.9,40.4-22.1,71.4-33.5C180.5,294.9,185.4,293.3,190.2,291.7z"/>
<path class="st0" d="M419.1,607.5c-0.7-0.7-1.4-1.5-2-2.4c-18.9,10.5-35.9,15.8-50.5,15.8c-9.5,0-18.2-2.2-26.1-6
	c0.4,0.4,0.6,0.7,1,1.1c10,9.3,22,14,35.9,14c13.9,0,30.3-5.4,49.1-16.2c0.1-0.1,0.2-0.2,0.3-0.2c-0.8-0.4-1.6-0.7-2.4-1.3l-1.1-0.8
	C423.2,611.2,421.6,610,419.1,607.5z"/>
<path class="st0" d="M265.6,283.7c0,0.1,0,0.1-0.1,0.2c-15.1,21.1-41.9,62-80.1,122.2c2.2,0.3,4.5,0.5,6.8,0.5h5.1
	c34.2-53.7,58.3-90.4,72.3-109.9c0.9-1.4,1.3-3.9,1.3-7.5c0-3.6-1.2-5.4-3.4-5.4L265.6,283.7L265.6,283.7z"/>
<path class="st0" d="M343.7,414.8c-21,15.2-44.6,27.9-70.1,37.6c-25.8,9.8-49.3,14.8-69.9,14.8c-10.2,0-19.4-2-27.6-5.8
	c10.1,9.8,22.9,14.8,38.4,14.8c19.7,0,42.1-4.7,67.1-14.3c25-9.5,47.8-21.7,68.3-36.6c20.5-14.9,37.6-32.4,51.2-52.4
	c13.7-20.1,20.5-39.8,20.5-59.3c0-5.3-1.1-10.4-3-15.4c-0.4,20.5-7.7,41.4-21.8,62.2C382.7,381.2,364.8,399.5,343.7,414.8z"/>
<path class="st1" d="M612.6,389.1c-28.2,4.2-62.3,6.7-102.5,7.4c-9.9,0.2-18.8,1.5-26.9,4c-8.1,2.5-14.9,7.7-20.3,15.6
	c-5.5,7.9-8.2,14.2-8.2,18.7c0,4.6,1.8,6.9,5.3,6.9h0.8c9.5-1.9,42.9-4.7,100.1-8.2c-5.3,4.6-15.7,13-31.2,25.4
	c-15.5,12.3-28.4,23-38.8,32c-10,8.6-21.2,20.2-33.8,34.7c-1.1-4.2-2.9-6.4-5.3-6.4c-2.3,0-11.7,8.9-28.3,26.7
	c-6.3,6.7-13.9,12.8-22.6,18.4c-8.7,5.5-17.1,8.3-25.2,8.3c-8.1,0-12.2-3-12.2-9c0-4.8,1.8-10.6,5.3-17.7c1.8-3.3,3.3-6.2,4.6-8.6
	c1.3-2.4,3.2-5.4,5.5-9c2.4-3.6,3.8-5.9,4.4-7c41.9-72.2,62.9-110.3,62.9-114.4c0-4-2.2-8.5-6.6-13.5c-4.4-4.9-9.4-7.4-14.9-7.4
	c-5.6,0-13.6,3.8-24.1,11.5c-10.5,7.7-19.4,15.4-26.7,23.3c-7.3,7.8-11,12.7-11,14.5s1.8,4.7,5.4,8.6c3.6,3.9,5.4,6.5,5.4,7.8
	c0,1.3-4.8,9.8-14.5,25.5c-9.7,15.7-19.4,32.8-29.1,51.2c-9.7,18.5-14.5,32.6-14.5,42.3c0,9.7,5,19.2,15.1,28.5
	c10,9.3,22,14,35.9,14c13.9,0,30.3-5.4,49.1-16.2c2.1-1.2,4-2.7,6-4c0.4,4.6,1.3,7.6,2.7,9c1.9,1.9,3,2.9,3.3,3
	c0.3,0.2,0.7,0.5,1.4,1.1c0.7,0.5,1.3,0.9,1.9,1.1c0.5,0.2,1.3,0.4,2.3,0.8c1,0.4,2,0.6,3,0.8c1.1,0.2,2.3,0.3,3.7,0.5
	c1.4,0.2,4.7,0.3,9.9,0.3c5.2,0,38.6-5.4,100.3-16.1c31.8-5.4,53.5-9.5,65.7-12.2c-0.1,1.9-0.2,4.1-0.2,6.9c0,7.4,1,12,2.9,13.9
	c1.9,1.9,3,2.9,3.3,3c0.3,0.2,0.7,0.5,1.5,1.1c0.7,0.5,1.3,0.9,1.9,1.1c0.5,0.2,1.3,0.4,2.3,0.8c1,0.4,2,0.6,3,0.8
	c1.1,0.2,2.3,0.3,3.7,0.5c1.4,0.2,4.7,0.3,9.9,0.3c5.2,0,38.6-5.4,100.3-16.1c36.9-6.3,60.3-10.7,70.8-13.4
	c2.3,7.7,6.2,14.4,11.9,19.7c7.6,7.2,17.3,10.8,29.3,10.8c12,0,27.4-6.6,46.4-19.8c18.9-13.2,35.7-29.3,50.3-48.3
	c-3.5,7.9-5.3,17.1-5.3,27.6c0,10.5,3.3,20,10,28.7c6.7,8.6,17.1,12.9,31.3,12.9c14.2,0,29.9-7,47.3-21.1
	c17.3-14.1,28.6-26.2,33.7-36.2c1-2.1,1.6-5.9,1.6-11.4c0-5.5-0.4-10.7-1.1-15.8c-0.7-5.1-2.7-7.7-6.1-7.7c-2.1,0-3.7,0.4-4.8,1.3
	c-1.1,0.9-4.3,4.3-9.6,10.3c-5.4,6-10.9,11.8-16.5,17.6c-5.6,5.7-12.1,11.1-19.3,16.1c-7.2,5-13.5,7.5-18.7,7.5
	c-5.3,0-7.9-4.8-7.9-14.5c0-3.2,0.3-5.6,0.8-7.4c2.7-14.3,8.5-31.5,17.6-51.6c9.1-20.2,17.3-36.7,24.8-49.7
	c7.5-12.9,12.4-20.6,14.7-22.9c2.3-2.3,3.4-5.9,3.4-10.8c0-9.2-6.7-13.7-20.1-13.7c-5.8,0-10.2,0.8-13.1,2.5
	c-2.9,1.7-6.5,5.7-10.7,12c-1.6-4.8-5.4-8.7-11.4-11.9c-6-3.2-13.7-4.8-23.3-4.8c-24.6,0-51.6,11.4-80.8,34.3
	c-13.9,10.9-26.7,23-38.3,36.3c-11.6,13.3-21,28-28.1,44.1c-2.7,6.1-4.7,12.1-6.4,18.2c-12.2,5.9-44.5,13.7-97,23.4
	c-23.8,4.4-38.6,7.5-44.4,9.2c18.7-32.2,66.6-78.5,143.7-138.7c8.3-2.3,14-5,17.2-8.2c3.2-3.2,4.7-7.8,4.7-13.7
	c0-6-1.5-10.9-4.6-14.8c-3.1-3.9-6.4-5.8-9.9-5.8c-3.5,0-7.6,0.9-12.3,2.6c-4.7,1.8-7.2,2.6-7.5,2.6c-28.2,4.2-62.3,6.7-102.5,7.4
	c-9.9,0.2-18.8,1.5-26.9,4c-8.1,2.5-14.9,7.7-20.3,15.6c-5.5,7.9-8.2,14.2-8.2,18.7c0,4.6,1.8,6.9,5.3,6.9h0.8
	c9.5-1.9,42.9-4.7,100.1-8.2c-5.3,4.6-15.7,13-31.2,25.4c-15.5,12.3-28.4,23-38.8,32c-10.4,9-22.2,21.2-35.5,36.6
	c-2.1,2.5-4.1,5-6.1,7.5c-0.7-3-1.5-4.9-2.7-5.7c-2.6-1.7-5.1-2.5-7.3-2.5s-4.2,0.9-5.9,2.6c-5.8,6.2-39.7,15-101.7,26.4
	c-23.8,4.4-38.6,7.5-44.4,9.2c18.7-32.2,66.6-78.5,143.7-138.7c8.3-2.3,14-5,17.2-8.2c3.2-3.2,4.7-7.8,4.7-13.7
	c0-6-1.5-10.9-4.6-14.8c-3.1-3.9-6.4-5.8-9.9-5.8c-3.5,0-7.6,0.9-12.3,2.6C615.5,388.2,612.9,389.1,612.6,389.1z M868.7,524.1
	c9.6-16.7,20.1-31.1,31.6-43.1c32.2-33.5,63.4-50.2,93.5-50.2c-24,32.9-40,54.5-48.1,64.7c-7.4,9.2-22.4,23.5-44.9,42.9
	c-22.6,19.5-36.3,29.2-41.2,29.2c-3.5,0-5.3-3.1-5.3-9.2C854.3,552.2,859.1,540.8,868.7,524.1z"/>
</svg>
